<svg width="16" height="17" viewBox="0 0 16 17" fill="none" xmlns="http://www.w3.org/2000/svg">
<g clip-path="url(#clip0_1514_11077)">
<path d="M7.99967 5.25203L8.64634 6.7787L8.95967 7.5187L9.75968 7.58536L11.4063 7.72536L10.153 8.81203L9.54634 9.3387L9.72634 10.1254L10.0997 11.732L8.68634 10.8787L7.99967 10.452L7.31301 10.8654L5.89967 11.7187L6.27301 10.112L6.45301 9.32536L5.84634 8.7987L4.59301 7.71203L6.23967 7.57203L7.03967 7.50536L7.35301 6.76536L7.99967 5.25203ZM7.99967 1.83203L6.12634 6.25203L1.33301 6.6587L4.97301 9.81203L3.87967 14.4987L7.99967 12.012L12.1197 14.4987L11.0263 9.81203L14.6663 6.6587L9.87301 6.25203L7.99967 1.83203Z" fill="black"/>
</g>
<defs>
<clipPath id="clip0_1514_11077">
<rect width="16" height="16" fill="white" transform="translate(0 0.5)"/>
</clipPath>
</defs>
</svg>
