<svg width="48" height="48" viewBox="0 0 48 48" fill="none" xmlns="http://www.w3.org/2000/svg">
    <g clip-path="url(#clip0_665_21516)">
        <rect width="48" height="48" rx="24" fill="#0F43F9"/>
        <g clip-path="url(#clip1_665_21516)">
            <path d="M14.7907 26.9624C13.9868 25.698 12.4882 23.9615 12.4882 22.4591C12.506 21.972 12.6705 21.5016 12.9602 21.1096C13.2499 20.7175 13.6512 20.4222 14.1117 20.2621C14.0375 18.9977 13.9868 17.71 13.9868 16.4339C13.9868 15.6808 13.9868 14.9198 14.0297 14.1745C14.0689 13.7004 14.1539 13.2313 14.2834 12.7736C14.8716 10.8575 16.1532 9.22955 17.8776 8.20785C18.4944 7.83086 19.1482 7.51833 19.8289 7.27519C21.0738 6.82643 21.7889 5.30285 23.1431 5.27553C26.3081 5.19358 30.1785 7.53275 32.2079 9.72975C33.5012 11.16 34.2367 13.0077 34.2801 14.9354L34.1513 20.4767C34.4507 20.5389 34.7296 20.6755 34.9622 20.874C35.1949 21.0725 35.3737 21.3264 35.4821 21.6123C35.9153 23.3644 34.1006 25.538 33.2576 26.9312C32.4771 28.215 29.5034 32.3671 29.5034 32.3944C29.5195 32.6322 29.6127 32.8582 29.7688 33.0383C34.3855 39.3834 48 35.3786 48 47.9987H24.2003L0 47.9997C0 35.3758 13.5731 39.3873 18.1859 33.0422C18.4123 32.7105 18.5177 32.5271 18.5138 32.3827C18.5138 32.3007 15.0951 27.4658 14.7907 26.978V26.9624Z" fill="white"/>
        </g>
    </g>
    <defs>
        <clipPath id="clip0_665_21516">
            <rect width="48" height="48" rx="24" fill="white"/>
        </clipPath>
        <clipPath id="clip1_665_21516">
            <rect width="48" height="48" fill="white"/>
        </clipPath>
    </defs>
</svg>