<svg width="20" height="20" viewBox="0 0 20 20" fill="none" xmlns="http://www.w3.org/2000/svg">
<path d="M10 0.3125C15.3516 0.3125 19.6875 4.64844 19.6875 10C19.6875 15.3516 15.3516 19.6875 10 19.6875C4.64844 19.6875 0.3125 15.3516 0.3125 10C0.3125 4.64844 4.64844 0.3125 10 0.3125ZM14.7266 12.5781L12.1875 10L14.7266 7.46094C14.9219 7.30469 14.9219 6.99219 14.7266 6.79688L13.2031 5.27344C13.0078 5.07812 12.6953 5.07812 12.5391 5.27344L10 7.8125L7.46094 5.27344C7.26562 5.07812 6.95312 5.07812 6.79688 5.27344L5.23438 6.79688C5.03906 6.99219 5.03906 7.30469 5.23438 7.46094L7.8125 10L5.23438 12.5391C5.03906 12.7344 5.03906 13.0469 5.23438 13.2031L6.75781 14.7656C6.95312 14.9609 7.26562 14.9609 7.42188 14.7656L10 12.1875L12.5391 14.7656C12.6953 14.9609 13.0078 14.9609 13.2031 14.7656L14.7266 13.2422C14.9219 13.0469 14.9219 12.7344 14.7266 12.5781Z" fill="#8CCAFF"/>
</svg>
