<svg width="64" height="64" viewBox="0 0 64 64" fill="none" xmlns="http://www.w3.org/2000/svg">
<path d="M44.4527 35.0146C48.106 37.4946 50.666 40.8546 50.666 45.3346V53.3346H61.3327V45.3346C61.3327 39.5213 51.8127 36.0813 44.4527 35.0146Z" fill="#323D66"/>
<path d="M39.9994 32.0013C45.8927 32.0013 50.666 27.228 50.666 21.3346C50.666 15.4413 45.8927 10.668 39.9994 10.668C38.746 10.668 37.5727 10.9346 36.4527 11.308C38.666 14.0546 39.9994 17.548 39.9994 21.3346C39.9994 25.1213 38.666 28.6146 36.4527 31.3613C37.5727 31.7346 38.746 32.0013 39.9994 32.0013Z" fill="#323D66"/>
<path d="M23.9993 32.0013C29.8927 32.0013 34.666 27.228 34.666 21.3346C34.666 15.4413 29.8927 10.668 23.9993 10.668C18.106 10.668 13.3327 15.4413 13.3327 21.3346C13.3327 27.228 18.106 32.0013 23.9993 32.0013ZM23.9993 16.0013C26.9327 16.0013 29.3327 18.4013 29.3327 21.3346C29.3327 24.268 26.9327 26.668 23.9993 26.668C21.066 26.668 18.666 24.268 18.666 21.3346C18.666 18.4013 21.066 16.0013 23.9993 16.0013Z" fill="#323D66"/>
<path d="M23.9993 34.668C16.8793 34.668 2.66602 38.2413 2.66602 45.3346V53.3346H45.3327V45.3346C45.3327 38.2413 31.1194 34.668 23.9993 34.668ZM39.9994 48.0013H7.99935V45.3613C8.53268 43.4413 16.7993 40.0013 23.9993 40.0013C31.1993 40.0013 39.466 43.4413 39.9994 45.3346V48.0013Z" fill="#323D66"/>
</svg>
