<svg width="64" height="64" viewBox="0 0 64 64" fill="none" xmlns="http://www.w3.org/2000/svg">
<path d="M23.9993 58.6654H47.9994C50.2127 58.6654 52.106 57.332 52.906 55.412L60.9594 36.612C61.1994 35.9987 61.3327 35.3587 61.3327 34.6654V29.332C61.3327 26.3987 58.9327 23.9987 55.9994 23.9987H39.1727L41.706 11.812L41.786 10.9587C41.786 9.86536 41.3327 8.85203 40.6127 8.13203L37.786 5.33203L20.2127 22.9054C19.2527 23.8654 18.666 25.1987 18.666 26.6654V53.332C18.666 56.2654 21.066 58.6654 23.9993 58.6654ZM23.9993 26.6654L35.5727 15.092L31.9993 29.332H55.9994V34.6654L47.9994 53.332H23.9993V26.6654ZM2.66602 26.6654H13.3327V58.6654H2.66602V26.6654Z" fill="#323D66"/>
</svg>
